<mxfile host="app.diagrams.net" modified="2020-11-10T22:42:58.976Z" agent="5.0 (Windows NT 10.0; Win64; x64) AppleWebKit/537.36 (KHTML, like Gecko) Chrome/86.0.4240.193 Safari/537.36" etag="2Noq2APK4ZWFLU1tclTn" version="13.9.2" type="github">
  <diagram id="K2wDJM4QVbkNAZEkxeQe" name="Page-1">
    <mxGraphModel dx="2889" dy="1154" grid="1" gridSize="10" guides="1" tooltips="1" connect="1" arrows="1" fold="1" page="1" pageScale="1" pageWidth="827" pageHeight="1169" math="0" shadow="0">
      <root>
        <mxCell id="0" />
        <mxCell id="1" parent="0" />
        <mxCell id="9-HBpfBp_F-0fpJu--r6-35" value="" style="edgeStyle=orthogonalEdgeStyle;rounded=0;orthogonalLoop=1;jettySize=auto;html=1;" edge="1" parent="1" source="9-HBpfBp_F-0fpJu--r6-1" target="9-HBpfBp_F-0fpJu--r6-3">
          <mxGeometry relative="1" as="geometry" />
        </mxCell>
        <mxCell id="9-HBpfBp_F-0fpJu--r6-1" value="" style="ellipse;fillColor=#000000;strokeColor=none;" vertex="1" parent="1">
          <mxGeometry x="415" y="90" width="30" height="30" as="geometry" />
        </mxCell>
        <mxCell id="9-HBpfBp_F-0fpJu--r6-7" value="" style="edgeStyle=orthogonalEdgeStyle;rounded=0;orthogonalLoop=1;jettySize=auto;html=1;entryX=0.5;entryY=0;entryDx=0;entryDy=0;" edge="1" parent="1" source="9-HBpfBp_F-0fpJu--r6-3" target="9-HBpfBp_F-0fpJu--r6-23">
          <mxGeometry relative="1" as="geometry">
            <mxPoint x="550" y="310" as="targetPoint" />
            <Array as="points">
              <mxPoint x="600" y="250" />
              <mxPoint x="620" y="250" />
            </Array>
          </mxGeometry>
        </mxCell>
        <mxCell id="9-HBpfBp_F-0fpJu--r6-8" style="edgeStyle=orthogonalEdgeStyle;rounded=0;orthogonalLoop=1;jettySize=auto;html=1;entryX=0.08;entryY=0.504;entryDx=0;entryDy=0;entryPerimeter=0;" edge="1" parent="1" source="9-HBpfBp_F-0fpJu--r6-3" target="9-HBpfBp_F-0fpJu--r6-9">
          <mxGeometry relative="1" as="geometry">
            <mxPoint x="180" y="250" as="targetPoint" />
            <Array as="points">
              <mxPoint x="260" y="225" />
              <mxPoint x="180" y="225" />
              <mxPoint x="180" y="261" />
            </Array>
          </mxGeometry>
        </mxCell>
        <mxCell id="9-HBpfBp_F-0fpJu--r6-19" value="" style="edgeStyle=orthogonalEdgeStyle;rounded=0;orthogonalLoop=1;jettySize=auto;html=1;entryX=0.586;entryY=-0.1;entryDx=0;entryDy=0;entryPerimeter=0;" edge="1" parent="1" source="9-HBpfBp_F-0fpJu--r6-3" target="9-HBpfBp_F-0fpJu--r6-22">
          <mxGeometry relative="1" as="geometry">
            <mxPoint x="470" y="330" as="targetPoint" />
            <Array as="points">
              <mxPoint x="472" y="230" />
              <mxPoint x="472" y="230" />
            </Array>
          </mxGeometry>
        </mxCell>
        <mxCell id="9-HBpfBp_F-0fpJu--r6-26" value="" style="edgeStyle=orthogonalEdgeStyle;rounded=0;orthogonalLoop=1;jettySize=auto;html=1;entryX=0.421;entryY=-0.05;entryDx=0;entryDy=0;entryPerimeter=0;" edge="1" parent="1" source="9-HBpfBp_F-0fpJu--r6-3" target="9-HBpfBp_F-0fpJu--r6-24">
          <mxGeometry relative="1" as="geometry">
            <mxPoint x="430" y="280" as="targetPoint" />
            <Array as="points">
              <mxPoint x="740" y="280" />
              <mxPoint x="759" y="280" />
            </Array>
          </mxGeometry>
        </mxCell>
        <mxCell id="9-HBpfBp_F-0fpJu--r6-3" value="" style="html=1;points=[];perimeter=orthogonalPerimeter;fillColor=#000000;strokeColor=none;" vertex="1" parent="1">
          <mxGeometry x="90" y="180" width="740" height="20" as="geometry" />
        </mxCell>
        <mxCell id="9-HBpfBp_F-0fpJu--r6-11" value="" style="edgeStyle=orthogonalEdgeStyle;rounded=0;orthogonalLoop=1;jettySize=auto;html=1;entryX=0.564;entryY=-0.025;entryDx=0;entryDy=0;entryPerimeter=0;" edge="1" parent="1" source="9-HBpfBp_F-0fpJu--r6-9" target="9-HBpfBp_F-0fpJu--r6-20">
          <mxGeometry relative="1" as="geometry">
            <mxPoint x="140" y="370" as="targetPoint" />
            <Array as="points">
              <mxPoint x="139" y="280" />
              <mxPoint x="139" y="280" />
            </Array>
          </mxGeometry>
        </mxCell>
        <mxCell id="9-HBpfBp_F-0fpJu--r6-13" value="" style="edgeStyle=orthogonalEdgeStyle;rounded=0;orthogonalLoop=1;jettySize=auto;html=1;entryX=0.5;entryY=0;entryDx=0;entryDy=0;" edge="1" parent="1" source="9-HBpfBp_F-0fpJu--r6-9" target="9-HBpfBp_F-0fpJu--r6-21">
          <mxGeometry relative="1" as="geometry">
            <mxPoint x="240" y="353" as="targetPoint" />
            <Array as="points">
              <mxPoint x="240" y="353" />
              <mxPoint x="300" y="353" />
            </Array>
          </mxGeometry>
        </mxCell>
        <mxCell id="9-HBpfBp_F-0fpJu--r6-9" value="" style="html=1;points=[];perimeter=orthogonalPerimeter;fillColor=#000000;strokeColor=none;direction=south;" vertex="1" parent="1">
          <mxGeometry x="90" y="260" width="187.5" height="12.5" as="geometry" />
        </mxCell>
        <mxCell id="9-HBpfBp_F-0fpJu--r6-28" style="edgeStyle=orthogonalEdgeStyle;rounded=0;orthogonalLoop=1;jettySize=auto;html=1;exitX=0.5;exitY=1;exitDx=0;exitDy=0;entryX=-0.2;entryY=0.681;entryDx=0;entryDy=0;entryPerimeter=0;" edge="1" parent="1" source="9-HBpfBp_F-0fpJu--r6-20" target="9-HBpfBp_F-0fpJu--r6-27">
          <mxGeometry relative="1" as="geometry" />
        </mxCell>
        <mxCell id="9-HBpfBp_F-0fpJu--r6-20" value="빵 길이 선택" style="html=1;align=center;verticalAlign=top;rounded=1;absoluteArcSize=1;arcSize=10;dashed=0;" vertex="1" parent="1">
          <mxGeometry x="60" y="390" width="140" height="40" as="geometry" />
        </mxCell>
        <mxCell id="9-HBpfBp_F-0fpJu--r6-29" value="" style="edgeStyle=orthogonalEdgeStyle;rounded=0;orthogonalLoop=1;jettySize=auto;html=1;" edge="1" parent="1" source="9-HBpfBp_F-0fpJu--r6-21" target="9-HBpfBp_F-0fpJu--r6-27">
          <mxGeometry relative="1" as="geometry" />
        </mxCell>
        <mxCell id="9-HBpfBp_F-0fpJu--r6-21" value="빵 선택" style="html=1;align=center;verticalAlign=top;rounded=1;absoluteArcSize=1;arcSize=10;dashed=0;" vertex="1" parent="1">
          <mxGeometry x="230" y="390" width="140" height="40" as="geometry" />
        </mxCell>
        <mxCell id="9-HBpfBp_F-0fpJu--r6-32" value="" style="edgeStyle=orthogonalEdgeStyle;rounded=0;orthogonalLoop=1;jettySize=auto;html=1;" edge="1" parent="1" source="9-HBpfBp_F-0fpJu--r6-22" target="9-HBpfBp_F-0fpJu--r6-31">
          <mxGeometry relative="1" as="geometry">
            <Array as="points">
              <mxPoint x="460" y="425" />
              <mxPoint x="530" y="425" />
            </Array>
          </mxGeometry>
        </mxCell>
        <mxCell id="9-HBpfBp_F-0fpJu--r6-22" value="치즈 선탹" style="html=1;align=center;verticalAlign=top;rounded=1;absoluteArcSize=1;arcSize=10;dashed=0;" vertex="1" parent="1">
          <mxGeometry x="390" y="340" width="140" height="40" as="geometry" />
        </mxCell>
        <mxCell id="9-HBpfBp_F-0fpJu--r6-46" value="" style="edgeStyle=orthogonalEdgeStyle;rounded=0;orthogonalLoop=1;jettySize=auto;html=1;" edge="1" parent="1" source="9-HBpfBp_F-0fpJu--r6-23" target="9-HBpfBp_F-0fpJu--r6-45">
          <mxGeometry relative="1" as="geometry" />
        </mxCell>
        <mxCell id="9-HBpfBp_F-0fpJu--r6-23" value="소스 선택" style="html=1;align=center;verticalAlign=top;rounded=1;absoluteArcSize=1;arcSize=10;dashed=0;" vertex="1" parent="1">
          <mxGeometry x="550" y="272.5" width="140" height="40" as="geometry" />
        </mxCell>
        <mxCell id="9-HBpfBp_F-0fpJu--r6-34" value="" style="edgeStyle=orthogonalEdgeStyle;rounded=0;orthogonalLoop=1;jettySize=auto;html=1;" edge="1" parent="1" source="9-HBpfBp_F-0fpJu--r6-24" target="9-HBpfBp_F-0fpJu--r6-31">
          <mxGeometry relative="1" as="geometry">
            <Array as="points">
              <mxPoint x="770" y="425" />
              <mxPoint x="710" y="425" />
            </Array>
          </mxGeometry>
        </mxCell>
        <mxCell id="9-HBpfBp_F-0fpJu--r6-24" value="토핑 선택" style="html=1;align=center;verticalAlign=top;rounded=1;absoluteArcSize=1;arcSize=10;dashed=0;" vertex="1" parent="1">
          <mxGeometry x="700" y="340" width="140" height="40" as="geometry" />
        </mxCell>
        <mxCell id="9-HBpfBp_F-0fpJu--r6-38" value="" style="edgeStyle=orthogonalEdgeStyle;rounded=0;orthogonalLoop=1;jettySize=auto;html=1;" edge="1" parent="1" source="9-HBpfBp_F-0fpJu--r6-27" target="9-HBpfBp_F-0fpJu--r6-37">
          <mxGeometry relative="1" as="geometry" />
        </mxCell>
        <mxCell id="9-HBpfBp_F-0fpJu--r6-27" value="" style="html=1;points=[];perimeter=orthogonalPerimeter;fillColor=#000000;strokeColor=none;direction=south;" vertex="1" parent="1">
          <mxGeometry x="60" y="470" width="310" height="10" as="geometry" />
        </mxCell>
        <mxCell id="9-HBpfBp_F-0fpJu--r6-42" value="" style="edgeStyle=orthogonalEdgeStyle;rounded=0;orthogonalLoop=1;jettySize=auto;html=1;entryX=0.16;entryY=0.411;entryDx=0;entryDy=0;entryPerimeter=0;" edge="1" parent="1" source="9-HBpfBp_F-0fpJu--r6-31" target="9-HBpfBp_F-0fpJu--r6-36">
          <mxGeometry relative="1" as="geometry">
            <mxPoint x="610" y="562.5" as="targetPoint" />
          </mxGeometry>
        </mxCell>
        <mxCell id="9-HBpfBp_F-0fpJu--r6-31" value="" style="html=1;points=[];perimeter=orthogonalPerimeter;fillColor=#000000;strokeColor=none;direction=south;" vertex="1" parent="1">
          <mxGeometry x="390" y="470" width="440" height="12.5" as="geometry" />
        </mxCell>
        <mxCell id="9-HBpfBp_F-0fpJu--r6-75" style="edgeStyle=orthogonalEdgeStyle;rounded=0;orthogonalLoop=1;jettySize=auto;html=1;entryX=0.5;entryY=0;entryDx=0;entryDy=0;" edge="1" parent="1" source="9-HBpfBp_F-0fpJu--r6-36" target="9-HBpfBp_F-0fpJu--r6-56">
          <mxGeometry relative="1" as="geometry">
            <Array as="points">
              <mxPoint x="275" y="660" />
              <mxPoint x="275" y="660" />
            </Array>
          </mxGeometry>
        </mxCell>
        <mxCell id="9-HBpfBp_F-0fpJu--r6-36" value="" style="html=1;points=[];perimeter=orthogonalPerimeter;fillColor=#000000;strokeColor=none;direction=south;" vertex="1" parent="1">
          <mxGeometry x="50" y="640" width="760" height="12.5" as="geometry" />
        </mxCell>
        <mxCell id="9-HBpfBp_F-0fpJu--r6-39" style="edgeStyle=orthogonalEdgeStyle;rounded=0;orthogonalLoop=1;jettySize=auto;html=1;" edge="1" parent="1" source="9-HBpfBp_F-0fpJu--r6-37">
          <mxGeometry relative="1" as="geometry">
            <mxPoint x="180" y="240" as="targetPoint" />
            <Array as="points">
              <mxPoint x="10" y="545" />
              <mxPoint x="10" y="240" />
              <mxPoint x="170" y="240" />
            </Array>
          </mxGeometry>
        </mxCell>
        <mxCell id="9-HBpfBp_F-0fpJu--r6-40" value="" style="edgeStyle=orthogonalEdgeStyle;rounded=0;orthogonalLoop=1;jettySize=auto;html=1;entryX=0;entryY=0.809;entryDx=0;entryDy=0;entryPerimeter=0;" edge="1" parent="1" source="9-HBpfBp_F-0fpJu--r6-37" target="9-HBpfBp_F-0fpJu--r6-36">
          <mxGeometry relative="1" as="geometry">
            <mxPoint x="340" y="620" as="targetPoint" />
          </mxGeometry>
        </mxCell>
        <mxCell id="9-HBpfBp_F-0fpJu--r6-37" value="" style="rhombus;" vertex="1" parent="1">
          <mxGeometry x="180" y="530" width="30" height="30" as="geometry" />
        </mxCell>
        <mxCell id="9-HBpfBp_F-0fpJu--r6-44" value="&lt;b&gt;[ 모두 선택 되었을 때 ]&lt;/b&gt;" style="text;html=1;strokeColor=none;fillColor=none;align=center;verticalAlign=middle;whiteSpace=wrap;rounded=0;" vertex="1" parent="1">
          <mxGeometry x="130" y="585" width="130" height="20" as="geometry" />
        </mxCell>
        <mxCell id="9-HBpfBp_F-0fpJu--r6-47" value="" style="edgeStyle=orthogonalEdgeStyle;rounded=0;orthogonalLoop=1;jettySize=auto;html=1;" edge="1" parent="1" source="9-HBpfBp_F-0fpJu--r6-45">
          <mxGeometry relative="1" as="geometry">
            <mxPoint x="600" y="230" as="targetPoint" />
            <Array as="points">
              <mxPoint x="540" y="365" />
              <mxPoint x="540" y="230" />
            </Array>
          </mxGeometry>
        </mxCell>
        <mxCell id="9-HBpfBp_F-0fpJu--r6-55" value="" style="edgeStyle=orthogonalEdgeStyle;rounded=0;orthogonalLoop=1;jettySize=auto;html=1;entryX=0.16;entryY=0.352;entryDx=0;entryDy=0;entryPerimeter=0;" edge="1" parent="1" source="9-HBpfBp_F-0fpJu--r6-45" target="9-HBpfBp_F-0fpJu--r6-31">
          <mxGeometry relative="1" as="geometry">
            <Array as="points">
              <mxPoint x="615" y="472" />
            </Array>
          </mxGeometry>
        </mxCell>
        <mxCell id="9-HBpfBp_F-0fpJu--r6-45" value="" style="rhombus;" vertex="1" parent="1">
          <mxGeometry x="600" y="350" width="30" height="30" as="geometry" />
        </mxCell>
        <mxCell id="9-HBpfBp_F-0fpJu--r6-49" value="&lt;b&gt;[ 3개 초과 선택 됨]&lt;/b&gt;" style="text;html=1;strokeColor=none;fillColor=none;align=center;verticalAlign=middle;whiteSpace=wrap;rounded=0;" vertex="1" parent="1">
          <mxGeometry x="540" y="370" width="60" height="20" as="geometry" />
        </mxCell>
        <mxCell id="9-HBpfBp_F-0fpJu--r6-50" value="&lt;b&gt;[ 3개 이하 ]&lt;/b&gt;" style="text;html=1;strokeColor=none;fillColor=none;align=center;verticalAlign=middle;whiteSpace=wrap;rounded=0;" vertex="1" parent="1">
          <mxGeometry x="580" y="410" width="70" height="20" as="geometry" />
        </mxCell>
        <mxCell id="9-HBpfBp_F-0fpJu--r6-43" value="&lt;b&gt;[ 하나라도 선택이 안되었을 때 ]&lt;/b&gt;" style="text;html=1;strokeColor=none;fillColor=none;align=center;verticalAlign=middle;whiteSpace=wrap;rounded=0;" vertex="1" parent="1">
          <mxGeometry x="-80" y="330" width="180" height="20" as="geometry" />
        </mxCell>
        <mxCell id="9-HBpfBp_F-0fpJu--r6-65" style="edgeStyle=orthogonalEdgeStyle;rounded=0;orthogonalLoop=1;jettySize=auto;html=1;entryX=-0.6;entryY=0.475;entryDx=0;entryDy=0;entryPerimeter=0;" edge="1" parent="1" source="9-HBpfBp_F-0fpJu--r6-56" target="9-HBpfBp_F-0fpJu--r6-66">
          <mxGeometry relative="1" as="geometry">
            <mxPoint x="630" y="715" as="targetPoint" />
          </mxGeometry>
        </mxCell>
        <mxCell id="9-HBpfBp_F-0fpJu--r6-83" style="edgeStyle=orthogonalEdgeStyle;rounded=0;orthogonalLoop=1;jettySize=auto;html=1;entryX=0;entryY=0.5;entryDx=0;entryDy=0;" edge="1" parent="1" source="9-HBpfBp_F-0fpJu--r6-56" target="9-HBpfBp_F-0fpJu--r6-61">
          <mxGeometry relative="1" as="geometry">
            <mxPoint x="180" y="1050" as="targetPoint" />
            <Array as="points">
              <mxPoint x="170" y="715" />
              <mxPoint x="170" y="1045" />
            </Array>
          </mxGeometry>
        </mxCell>
        <mxCell id="9-HBpfBp_F-0fpJu--r6-56" value="" style="rhombus;" vertex="1" parent="1">
          <mxGeometry x="260" y="700" width="30" height="30" as="geometry" />
        </mxCell>
        <mxCell id="9-HBpfBp_F-0fpJu--r6-90" value="" style="edgeStyle=orthogonalEdgeStyle;rounded=0;orthogonalLoop=1;jettySize=auto;html=1;" edge="1" parent="1" source="9-HBpfBp_F-0fpJu--r6-61" target="9-HBpfBp_F-0fpJu--r6-89">
          <mxGeometry relative="1" as="geometry" />
        </mxCell>
        <mxCell id="9-HBpfBp_F-0fpJu--r6-61" value="" style="rhombus;" vertex="1" parent="1">
          <mxGeometry x="270" y="1030" width="30" height="30" as="geometry" />
        </mxCell>
        <mxCell id="9-HBpfBp_F-0fpJu--r6-77" style="edgeStyle=orthogonalEdgeStyle;rounded=0;orthogonalLoop=1;jettySize=auto;html=1;entryX=0.5;entryY=0.125;entryDx=0;entryDy=0;entryPerimeter=0;" edge="1" parent="1" source="9-HBpfBp_F-0fpJu--r6-66" target="9-HBpfBp_F-0fpJu--r6-79">
          <mxGeometry relative="1" as="geometry">
            <mxPoint x="530" y="850" as="targetPoint" />
            <Array as="points">
              <mxPoint x="560" y="803" />
              <mxPoint x="530" y="803" />
            </Array>
          </mxGeometry>
        </mxCell>
        <mxCell id="9-HBpfBp_F-0fpJu--r6-78" style="edgeStyle=orthogonalEdgeStyle;rounded=0;orthogonalLoop=1;jettySize=auto;html=1;entryX=0.436;entryY=-0.1;entryDx=0;entryDy=0;entryPerimeter=0;" edge="1" parent="1" source="9-HBpfBp_F-0fpJu--r6-66" target="9-HBpfBp_F-0fpJu--r6-80">
          <mxGeometry relative="1" as="geometry">
            <mxPoint x="700" y="840" as="targetPoint" />
          </mxGeometry>
        </mxCell>
        <mxCell id="9-HBpfBp_F-0fpJu--r6-66" value="" style="html=1;points=[];perimeter=orthogonalPerimeter;fillColor=#000000;strokeColor=none;direction=south;" vertex="1" parent="1">
          <mxGeometry x="490" y="750" width="240" height="10" as="geometry" />
        </mxCell>
        <mxCell id="9-HBpfBp_F-0fpJu--r6-84" style="edgeStyle=orthogonalEdgeStyle;rounded=0;orthogonalLoop=1;jettySize=auto;html=1;entryX=1;entryY=0.5;entryDx=0;entryDy=0;" edge="1" parent="1" source="9-HBpfBp_F-0fpJu--r6-71" target="9-HBpfBp_F-0fpJu--r6-61">
          <mxGeometry relative="1" as="geometry">
            <mxPoint x="550" y="1090" as="targetPoint" />
            <Array as="points">
              <mxPoint x="615" y="1045" />
            </Array>
          </mxGeometry>
        </mxCell>
        <mxCell id="9-HBpfBp_F-0fpJu--r6-85" value="" style="edgeStyle=orthogonalEdgeStyle;rounded=0;orthogonalLoop=1;jettySize=auto;html=1;" edge="1" parent="1" source="9-HBpfBp_F-0fpJu--r6-71" target="9-HBpfBp_F-0fpJu--r6-80">
          <mxGeometry relative="1" as="geometry" />
        </mxCell>
        <mxCell id="9-HBpfBp_F-0fpJu--r6-71" value="" style="html=1;points=[];perimeter=orthogonalPerimeter;fillColor=#000000;strokeColor=none;direction=south;" vertex="1" parent="1">
          <mxGeometry x="485" y="980" width="260" height="10" as="geometry" />
        </mxCell>
        <mxCell id="9-HBpfBp_F-0fpJu--r6-81" style="edgeStyle=orthogonalEdgeStyle;rounded=0;orthogonalLoop=1;jettySize=auto;html=1;entryX=0.4;entryY=0.696;entryDx=0;entryDy=0;entryPerimeter=0;" edge="1" parent="1" source="9-HBpfBp_F-0fpJu--r6-79" target="9-HBpfBp_F-0fpJu--r6-71">
          <mxGeometry relative="1" as="geometry" />
        </mxCell>
        <mxCell id="9-HBpfBp_F-0fpJu--r6-79" value="음료 선택" style="html=1;align=center;verticalAlign=top;rounded=1;absoluteArcSize=1;arcSize=10;dashed=0;" vertex="1" parent="1">
          <mxGeometry x="460" y="855" width="140" height="40" as="geometry" />
        </mxCell>
        <mxCell id="9-HBpfBp_F-0fpJu--r6-82" style="edgeStyle=orthogonalEdgeStyle;rounded=0;orthogonalLoop=1;jettySize=auto;html=1;entryX=0;entryY=0.396;entryDx=0;entryDy=0;entryPerimeter=0;" edge="1" parent="1" source="9-HBpfBp_F-0fpJu--r6-80" target="9-HBpfBp_F-0fpJu--r6-71">
          <mxGeometry relative="1" as="geometry" />
        </mxCell>
        <mxCell id="9-HBpfBp_F-0fpJu--r6-80" value="사이드 선택" style="html=1;align=center;verticalAlign=top;rounded=1;absoluteArcSize=1;arcSize=10;dashed=0;" vertex="1" parent="1">
          <mxGeometry x="640" y="860" width="140" height="40" as="geometry" />
        </mxCell>
        <mxCell id="9-HBpfBp_F-0fpJu--r6-86" value="[ 세트 선택 ]" style="text;html=1;strokeColor=none;fillColor=none;align=center;verticalAlign=middle;whiteSpace=wrap;rounded=0;" vertex="1" parent="1">
          <mxGeometry x="310" y="690" width="80" height="20" as="geometry" />
        </mxCell>
        <mxCell id="9-HBpfBp_F-0fpJu--r6-87" value="[ 단품 선택 ]" style="text;html=1;strokeColor=none;fillColor=none;align=center;verticalAlign=middle;whiteSpace=wrap;rounded=0;" vertex="1" parent="1">
          <mxGeometry x="164" y="690" width="76" height="20" as="geometry" />
        </mxCell>
        <mxCell id="9-HBpfBp_F-0fpJu--r6-88" value="" style="ellipse;html=1;shape=endState;fillColor=#000000;strokeColor=#ff0000;" vertex="1" parent="1">
          <mxGeometry x="270" y="1190" width="30" height="30" as="geometry" />
        </mxCell>
        <mxCell id="9-HBpfBp_F-0fpJu--r6-91" value="" style="edgeStyle=orthogonalEdgeStyle;rounded=0;orthogonalLoop=1;jettySize=auto;html=1;" edge="1" parent="1" source="9-HBpfBp_F-0fpJu--r6-89" target="9-HBpfBp_F-0fpJu--r6-88">
          <mxGeometry relative="1" as="geometry" />
        </mxCell>
        <mxCell id="9-HBpfBp_F-0fpJu--r6-89" value="샌드위치 구성 완료" style="html=1;align=center;verticalAlign=top;rounded=1;absoluteArcSize=1;arcSize=10;dashed=0;" vertex="1" parent="1">
          <mxGeometry x="215" y="1100" width="140" height="40" as="geometry" />
        </mxCell>
      </root>
    </mxGraphModel>
  </diagram>
</mxfile>
